HIERARCHY
ROOT Hips
{
	OFFSET -3.958830 18.904000 13.208200
	CHANNELS 6 Xposition Yposition Zposition Zrotation Yrotation Xrotation 
	JOINT LHipJoint
	{
		OFFSET 0.000000 0.000000 0.000000
		CHANNELS 3 Zrotation Yrotation Xrotation
		JOINT LeftUpLeg
		{
			OFFSET 1.800000 -1.400000 0.085000
			CHANNELS 3 Zrotation Yrotation Xrotation
			JOINT LeftLeg
			{
				OFFSET 2.215000 -6.000000 0.000000
				CHANNELS 3 Zrotation Yrotation Xrotation
				JOINT LeftFoot
				{
					OFFSET 2.500000 -6.900000 0.000000
					CHANNELS 3 Zrotation Yrotation Xrotation
					JOINT LeftToeBase
					{
						OFFSET 0.200000 -0.500000 1.950000
						CHANNELS 3 Zrotation Yrotation Xrotation
						End Site
						{
							OFFSET 0.000000 0.000000 0.000000
						}
					}
				}
			}
		}
	}
	JOINT RHipJoint
	{
		OFFSET 0.000000 0.000000 0.000000
		CHANNELS 3 Zrotation Yrotation Xrotation
		JOINT RightUpLeg
		{
			OFFSET -1.800000 -1.400000 0.085000
			CHANNELS 3 Zrotation Yrotation Xrotation
			JOINT RightLeg
			{
				OFFSET -2.215000 -6.000000 0.000000
				CHANNELS 3 Zrotation Yrotation Xrotation
				JOINT RightFoot
				{
					OFFSET -2.500000 -6.900000 0.000000
					CHANNELS 3 Zrotation Yrotation Xrotation
					JOINT RightToeBase
					{
						OFFSET -0.200000 -0.500000 1.950000
						CHANNELS 3 Zrotation Yrotation Xrotation
						End Site
						{
							OFFSET 0.000000 0.000000 0.000000
						}
					}
				}
			}
		}
	}
	JOINT LowerBack
	{
		OFFSET 0.000000 0.000000 0.000000
		CHANNELS 3 Zrotation Yrotation Xrotation
		JOINT Spine
		{
			OFFSET -0.087000 1.940000 -0.288900
			CHANNELS 3 Zrotation Yrotation Xrotation
			JOINT Spine1
			{
				OFFSET 0.000000 1.950000 0.060000
				CHANNELS 3 Zrotation Yrotation Xrotation
				JOINT Neck
				{
					OFFSET 0.000000 0.000000 0.000000
					CHANNELS 3 Zrotation Yrotation Xrotation
					JOINT Neck1
					{
						OFFSET 0.000000 1.600000 0.340000
						CHANNELS 3 Zrotation Yrotation Xrotation
						JOINT Head
						{
							OFFSET 0.000000 1.667000 -0.240000
							CHANNELS 3 Zrotation Yrotation Xrotation
							End Site
							{
								OFFSET 0.000000 0.000000 0.000000
							}
						}
					}
				}
				JOINT LeftShoulder
				{
					OFFSET 0.000000 0.000000 0.000000
					CHANNELS 3 Zrotation Yrotation Xrotation
					JOINT LeftArm
					{
						OFFSET 2.700000 1.550000 -0.730000
						CHANNELS 3 Zrotation Yrotation Xrotation
						JOINT LeftForeArm
						{
							OFFSET 5.450000 0.000000 0.000000
							CHANNELS 3 Zrotation Yrotation Xrotation
							JOINT LeftHand
							{
								OFFSET 3.450000 0.000000 0.000000
								CHANNELS 3 Zrotation Yrotation Xrotation
								JOINT LeftHandIndex1
								{
									OFFSET 0.750000 0.000000 0.000000
									CHANNELS 3 Zrotation Yrotation Xrotation
									End Site
									{
										OFFSET 0.000000 0.000000 0.000000
									}
								}
							}
						}
					}
				}
				JOINT RightShoulder
				{
					OFFSET 0.000000 0.000000 0.000000
					CHANNELS 3 Zrotation Yrotation Xrotation
					JOINT RightArm
					{
						OFFSET -2.700000 1.550000 -0.730000
						CHANNELS 3 Zrotation Yrotation Xrotation
						JOINT RightForeArm
						{
							OFFSET -5.450000 0.000000 0.000000
							CHANNELS 3 Zrotation Yrotation Xrotation
							JOINT RightHand
							{
								OFFSET -3.450000 0.000000 0.000000
								CHANNELS 3 Zrotation Yrotation Xrotation
								JOINT RightHandIndex1
								{
									OFFSET -0.750000 0.000000 0.000000
									CHANNELS 3 Zrotation Yrotation Xrotation
									End Site
									{
										OFFSET 0.000000 0.000000 0.000000
									}
								}
							}
						}
					}
				}
			}
		}
	}
}
MOTION
Frames: 7
Frame Time: 0.016667
-0.178180 16.896490 -1.613120 -3.690144 -0.449310 10.196955 -15.232841 12.484127 3.494948 12.997978 -1.361785 -5.545076 -6.768545 3.123227 -8.379190 0.713193 3.847613 3.189772 -0.247800 -0.080100 -0.030580 18.200954 -10.135071 3.080037 -13.484124 0.278351 -6.264088 6.917644 -2.837141 -4.198971 -0.179421 -3.755287 2.929657 -0.208140 -0.090710 -0.094370 -3.381856 -1.618084 -8.017415 7.567792 1.668786 -4.035192 -1.231272 1.108714 -2.235357 3.366779 -1.694736 -15.307846 -6.992086 0.908331 42.001065 -2.537440 1.852670 10.436820 -6.864893 -5.104861 6.345534 -3.095331 12.005709 -1.097048 8.525233 6.447843 0.825165 -3.959079 2.937687 -0.205640 -0.061940 0.027770 -0.198460 1.234809 7.719917 11.916649 3.652766 -19.592202 -0.374706 -4.951273 -3.685467 0.124383 3.481993 -1.091947 0.114870 -0.217110 -0.037540 0.158870 
-0.178710 16.897130 -1.612930 -3.632485 -0.456126 10.182065 -15.234773 12.486044 3.489210 12.948493 -1.350621 -5.542962 -6.793490 3.132662 -8.312722 0.711587 3.843306 3.192018 -0.249580 -0.081640 -0.031420 18.197582 -10.140163 3.083302 -13.554934 0.277943 -6.278138 6.958321 -2.846515 -4.188188 -0.179449 -3.759616 2.927892 -0.208750 -0.089170 -0.094850 -3.373565 -1.608376 -8.016093 7.431351 1.681988 -4.053157 -1.206653 1.120510 -2.275852 3.363902 -1.660859 -15.307495 -6.938179 0.884330 42.078574 -2.545050 1.835470 10.472920 -6.875377 -5.123241 6.338834 -3.066079 11.940416 -1.093846 8.585656 6.409549 0.829795 -3.960009 2.935261 -0.205660 -0.061200 0.027630 -0.198530 1.261240 7.713729 11.916637 3.689947 -19.611045 -0.378650 -4.950334 -3.703541 0.127331 3.482066 -1.090486 0.113770 -0.215290 -0.036770 0.159270 
-0.179760 16.897660 -1.613010 -3.575442 -0.453087 10.134099 -15.236830 12.488376 3.482485 12.931457 -1.333937 -5.531479 -6.859316 3.154090 -8.208710 0.712107 3.841076 3.193810 -0.249410 -0.079450 -0.032060 18.193971 -10.147016 3.085052 -13.622127 0.268688 -6.277596 7.015477 -2.861871 -4.152737 -0.179883 -3.764414 2.927631 -0.208070 -0.086750 -0.096560 -3.364593 -1.597116 -8.012589 7.268312 1.693514 -4.062431 -1.162771 1.129977 -2.308174 3.340321 -1.627717 -15.286166 -6.886310 0.874895 42.161269 -2.456240 1.771210 10.467670 -6.917133 -5.146907 6.317255 -3.016163 11.794717 -1.087720 8.734327 6.350806 0.843184 -3.960069 2.933871 -0.207340 -0.060560 0.027340 -0.197420 1.361603 7.700991 11.898600 3.666146 -19.639722 -0.365825 -4.972160 -3.750507 0.131811 3.481949 -1.090097 0.113980 -0.211680 -0.037300 0.161100 
-0.181290 16.898120 -1.613340 -3.540374 -0.452799 10.083446 -15.237344 12.493604 3.477903 12.944844 -1.323616 -5.538615 -6.916893 3.175307 -8.092679 0.710227 3.841031 3.194518 -0.248350 -0.079240 -0.030290 18.191053 -10.158191 3.083555 -13.642909 0.255388 -6.273633 7.029499 -2.878761 -4.077076 -0.180516 -3.764432 2.926940 -0.207530 -0.085670 -0.096380 -3.358560 -1.586149 -8.009946 7.132625 1.690186 -4.078731 -1.151505 1.128535 -2.362568 3.315938 -1.560320 -15.283232 -6.772006 0.872745 42.311210 -2.353640 1.723850 10.499010 -6.961558 -5.209914 6.314448 -2.905791 11.691465 -1.075028 8.809856 6.268522 0.844195 -3.958841 2.932709 -0.205860 -0.060750 0.028290 -0.196560 1.454694 7.698137 11.886730 3.723462 -19.598714 -0.367200 -5.049842 -3.831854 0.148150 3.483352 -1.090650 0.113050 -0.210000 -0.038370 0.161100 
-0.183470 16.898550 -1.614450 -3.510581 -0.457932 10.023772 -15.239861 12.494227 3.473705 12.962451 -1.310891 -5.514835 -6.979796 3.194963 -8.011883 0.707928 3.845637 3.193560 -0.251130 -0.080850 -0.033110 18.187905 -10.165542 3.082148 -13.652395 0.240256 -6.245559 7.034782 -2.891524 -4.038226 -0.180212 -3.767591 2.926131 -0.206930 -0.082680 -0.098820 -3.349253 -1.574039 -8.005086 6.963613 1.685327 -4.110695 -1.093127 1.119260 -2.346639 3.285181 -1.493763 -15.287443 -6.651318 0.877121 42.428957 -2.237220 1.679560 10.540340 -6.981048 -5.289771 6.330803 -2.914222 11.568490 -1.072686 8.952704 6.209371 0.856050 -3.959680 2.929722 -0.205090 -0.059990 0.027140 -0.196690 1.540825 7.704133 11.881740 3.834856 -19.512579 -0.375669 -5.232849 -3.996639 0.181963 3.486118 -1.089768 0.109750 -0.206110 -0.036500 0.161390 
-0.185460 16.898950 -1.614790 -3.512738 -0.480517 9.991408 -15.242347 12.493844 3.472176 12.992862 -1.303774 -5.485097 -7.018724 3.208644 -7.970587 0.705537 3.851267 3.192497 -0.254220 -0.082170 -0.034460 18.185290 -10.170653 3.081367 -13.615494 0.227881 -6.221677 7.014416 -2.894220 -4.029678 -0.179423 -3.766767 2.927458 -0.205870 -0.080600 -0.102820 -3.340662 -1.563243 -8.002524 6.839293 1.667143 -4.168030 -1.027069 1.095525 -2.404566 3.271676 -1.428455 -15.277573 -6.536056 0.873230 42.588280 -2.226360 1.690810 10.562440 -7.000104 -5.323450 6.328118 -2.926599 11.495554 -1.074749 9.118697 6.069824 0.868497 -3.959724 2.924220 -0.204350 -0.059230 0.026090 -0.197730 1.586921 7.675651 11.858403 3.930969 -19.325812 -0.383679 -5.467564 -4.142583 0.220126 3.489115 -1.088380 0.105530 -0.200960 -0.034940 0.160840 
-0.187960 16.899160 -1.614750 -3.486717 -0.519514 9.969642 -15.249325 12.490977 3.470294 12.992994 -1.298889 -5.445900 -7.040424 3.214791 -7.951575 0.700887 3.856366 3.192889 -0.254770 -0.083310 -0.032470 18.177947 -10.176333 3.081980 -13.629548 0.220257 -6.212755 7.014607 -2.900572 -4.027702 -0.179491 -3.769560 2.928372 -0.204320 -0.079110 -0.106160 -3.318260 -1.545084 -8.000126 6.593442 1.665800 -4.250036 -0.869206 1.081571 -2.518575 3.278898 -1.340958 -15.250488 -6.385467 0.834489 42.800539 -2.329960 1.734850 10.581950 -6.987188 -5.318689 6.299824 -2.954537 11.326263 -1.070761 9.228372 5.962107 0.874654 -3.961078 2.917058 -0.202060 -0.057840 0.024730 -0.197960 1.579284 7.602344 11.820775 4.000805 -19.139667 -0.390844 -5.624252 -4.222879 0.244002 3.488064 -1.087849 0.100680 -0.195690 -0.034530 0.158250 
